<?xml version="1.0" standalone="no"?><!DOCTYPE svg PUBLIC "-//W3C//DTD SVG 1.1//EN" "http://www.w3.org/Graphics/SVG/1.1/DTD/svg11.dtd"><svg t="1702802503380" class="icon" viewBox="0 0 1024 1024" version="1.1" xmlns="http://www.w3.org/2000/svg" p-id="1027" xmlns:xlink="http://www.w3.org/1999/xlink" width="200" height="200"><path d="M496 377.84h78.768V141.544a39.384 39.384 0 0 0-39.384-39.384h-393.84a39.384 39.384 0 0 0-39.392 39.384v393.848a39.384 39.384 0 0 0 39.384 39.384h39.384v1.76l-35.552 45.504-22.6 30.024C66.432 643.064 23.384 594.248 23.384 535.384v-393.84c0-65.264 52.896-118.16 118.16-118.16h393.84c65.256 0 118.16 52.896 118.16 118.16V377.84h236.304C955.104 377.84 1008 430.744 1008 496v393.84c0 65.264-52.896 118.16-118.16 118.16H496c-46 0-85.864-26.288-105.384-64.664l18.736-14.104 47.336-36.984A39.384 39.384 0 0 0 496 929.232h393.84a39.384 39.384 0 0 0 39.392-39.384V496a39.384 39.384 0 0 0-39.384-39.384H496A39.384 39.384 0 0 0 456.616 496v216.616l-78.768-61.536V496c0-15.904 3.136-31.072 8.84-44.92a386.808 386.808 0 0 1-30.552-20.424c-4.44 3.36-8.976 6.96-13.424 10.072-62.432 43.048-124.864 63.776-124.864 63.776l-13.432-40.952s56.728-19.304 113.456-58.4c1.432-1.016 2.6-2.352 4.032-3.36C265.424 350.184 237.312 298.4 237.312 298.4l37.6-20.144s27.36 49.432 81.224 96.672c35.168-31.72 63.2-70.992 69.824-118.824H170.184v-42.96h171.856v-42.968h42.96v42.96h150.384v42.968H469.6c-6.456 60-39.272 108.504-78.544 145.68 6.248 4.328 12.728 8.568 19.456 12.656A117.816 117.816 0 0 1 496 377.84z m177.84 137.576h53.6l133.6 352h-64l-28.8-81.416h-135.2l-28 81.416h-64l132.8-352z m27.2 80l-48 144h96l-48-144zM299.072 766.32h103.12v-59.072l126.024 98.456-126.032 98.464V848h-125.04a64 64 0 0 1-64-64V664.28h-64.456l107.416-128.896 107.416 128.896h-64.448V766.32z" fill="#000000" p-id="1028"></path></svg>